<svg id="Capa_1" enable-background="new 0 0 512 512" height="52" viewBox="0 0 512 512" width="52" xmlns="http://www.w3.org/2000/svg"><g><path d="m421 436c0 48.6-84.901 76-165 76s-165-27.4-165-76c0-32.1 37.8-58.2 101.1-69.6h127.8c63.3 11.4 101.1 37.5 101.1 69.6z" fill="#ffd400"/><path d="m421 436c0 48.6-84.901 76-165 76v-145.6h63.9c63.3 11.4 101.1 37.5 101.1 69.6z" fill="#ff9f00"/><path d="m256 0c-107.401 0-195 88.599-195 196 0 47.999 17.701 94.2 50.7 131.1l144.3 129 145.499-130.201c31.8-35.699 49.501-81.9 49.501-129.899 0-107.401-87.599-196-195-196z" fill="#ff6c6c"/><path d="m451 196c0 47.999-17.701 94.2-49.501 129.899l-145.499 130.2v-456.099c107.401 0 195 88.599 195 196z" fill="#ff193d"/><path d="m391 196c0 47.1-24.3 88.5-60.901 112.5h-148.198c-36.601-24-60.901-65.4-60.901-112.5 0-74.401 60.601-135 135-135s135 60.599 135 135z" fill="#68544f"/><path d="m391 196c0 47.1-24.3 88.5-60.901 112.5h-74.099v-247.5c74.399 0 135 60.599 135 135z" fill="#3e322e"/><g><path d="m256 121c-32.999 0-60 26.999-60 60 0 32.999 27.001 60 60 60s60-27.001 60-60c0-33.001-27.001-60-60-60z" fill="#ff8597"/></g><path d="m330.099 308.5c-21.299 14.099-46.8 22.5-74.099 22.5s-52.8-8.401-74.099-22.5c3.6-37.8 35.099-67.5 74.099-67.5s70.499 29.7 74.099 67.5z" fill="#ff8597"/><g fill="#ff193d"><path d="m256 241v-120c32.999 0 60 26.999 60 60 0 32.999-27.001 60-60 60z"/><path d="m330.099 308.5c-21.299 14.099-46.8 22.5-74.099 22.5v-90c39 0 70.499 29.7 74.099 67.5z"/></g></g></svg>